<mxfile host="app.diagrams.net" agent="Mozilla/5.0 (Windows NT 10.0; Win64; x64) AppleWebKit/537.36 (KHTML, like Gecko) Chrome/129.0.0.0 Safari/537.36" version="24.7.17">
  <diagram name="Page-1" id="KIX7LyIhIDrJ8Lp5BS9p">
    <mxGraphModel dx="1588" dy="829" grid="1" gridSize="10" guides="1" tooltips="1" connect="1" arrows="1" fold="1" page="1" pageScale="1" pageWidth="850" pageHeight="1100" math="0" shadow="0">
      <root>
        <mxCell id="0" />
        <mxCell id="1" parent="0" />
        <mxCell id="9VAq0iB6tgvZGaMcJ6U8-34" value="Student" style="whiteSpace=wrap;strokeWidth=2;fillColor=#b0e3e6;strokeColor=#0e8088;rounded=1;fontSize=14;" vertex="1" parent="1">
          <mxGeometry x="450" y="450" width="92" height="49" as="geometry" />
        </mxCell>
        <mxCell id="9VAq0iB6tgvZGaMcJ6U8-35" value="Our IELTS System" style="ellipse;aspect=fixed;strokeWidth=2;whiteSpace=wrap;rotation=0;fillColor=#fad7ac;strokeColor=#b46504;fontSize=15;" vertex="1" parent="1">
          <mxGeometry x="860" y="360" width="174" height="174" as="geometry" />
        </mxCell>
        <mxCell id="9VAq0iB6tgvZGaMcJ6U8-36" value="" style="curved=1;endArrow=classic;html=1;rounded=0;entryX=0.012;entryY=0.418;entryDx=0;entryDy=0;entryPerimeter=0;exitX=1;exitY=0.25;exitDx=0;exitDy=0;edgeStyle=orthogonalEdgeStyle;fontSize=13;" edge="1" parent="1">
          <mxGeometry width="50" height="50" relative="1" as="geometry">
            <mxPoint x="539.87" y="442.25" as="sourcePoint" />
            <mxPoint x="859.9580000000002" y="412.73199999999997" as="targetPoint" />
            <Array as="points">
              <mxPoint x="539.87" y="340" />
              <mxPoint x="859.87" y="340" />
            </Array>
          </mxGeometry>
        </mxCell>
        <mxCell id="9VAq0iB6tgvZGaMcJ6U8-37" value="View Past Test Reviews" style="edgeLabel;align=center;verticalAlign=middle;resizable=0;points=[];rotation=0;fontSize=13;" vertex="1" connectable="0" parent="9VAq0iB6tgvZGaMcJ6U8-36">
          <mxGeometry x="0.3246" y="-12" relative="1" as="geometry">
            <mxPoint x="-65" y="8" as="offset" />
          </mxGeometry>
        </mxCell>
        <mxCell id="9VAq0iB6tgvZGaMcJ6U8-40" value="" style="curved=1;endArrow=classic;html=1;rounded=0;exitX=0.75;exitY=0;exitDx=0;exitDy=0;entryX=0.049;entryY=0.278;entryDx=0;entryDy=0;entryPerimeter=0;edgeStyle=orthogonalEdgeStyle;fontSize=13;" edge="1" parent="1" source="9VAq0iB6tgvZGaMcJ6U8-34" target="9VAq0iB6tgvZGaMcJ6U8-35">
          <mxGeometry width="50" height="50" relative="1" as="geometry">
            <mxPoint x="570" y="385" as="sourcePoint" />
            <mxPoint x="849.8438077077385" y="374.18363352750566" as="targetPoint" />
            <Array as="points">
              <mxPoint x="519" y="300" />
              <mxPoint x="869" y="300" />
            </Array>
          </mxGeometry>
        </mxCell>
        <mxCell id="9VAq0iB6tgvZGaMcJ6U8-41" value="&lt;h3 style=&quot;font-size: 13px;&quot;&gt;&lt;br style=&quot;font-size: 13px;&quot;&gt;&lt;/h3&gt;" style="edgeLabel;html=1;align=center;verticalAlign=middle;resizable=0;points=[];rotation=15;fontSize=13;" vertex="1" connectable="0" parent="9VAq0iB6tgvZGaMcJ6U8-40">
          <mxGeometry x="0.3246" y="-12" relative="1" as="geometry">
            <mxPoint x="-15" y="-2" as="offset" />
          </mxGeometry>
        </mxCell>
        <mxCell id="9VAq0iB6tgvZGaMcJ6U8-42" value="Manage Profile" style="edgeLabel;align=center;verticalAlign=middle;resizable=0;points=[];rotation=0;fontSize=13;" vertex="1" connectable="0" parent="1">
          <mxGeometry x="699.9959927382126" y="359.9961651102727" as="geometry">
            <mxPoint x="3.2395501180671404" y="-38.137977332739226" as="offset" />
          </mxGeometry>
        </mxCell>
        <mxCell id="9VAq0iB6tgvZGaMcJ6U8-43" value="" style="curved=1;endArrow=classic;html=1;rounded=0;entryX=0.329;entryY=0.041;entryDx=0;entryDy=0;exitX=0.25;exitY=0;exitDx=0;exitDy=0;entryPerimeter=0;edgeStyle=orthogonalEdgeStyle;fontSize=13;" edge="1" parent="1" source="9VAq0iB6tgvZGaMcJ6U8-34" target="9VAq0iB6tgvZGaMcJ6U8-35">
          <mxGeometry width="50" height="50" relative="1" as="geometry">
            <mxPoint x="537.26" y="340" as="sourcePoint" />
            <mxPoint x="862.7417100367736" y="285.48171003677373" as="targetPoint" />
            <Array as="points">
              <mxPoint x="473" y="220" />
              <mxPoint x="917" y="220" />
            </Array>
          </mxGeometry>
        </mxCell>
        <mxCell id="9VAq0iB6tgvZGaMcJ6U8-44" value="&lt;h3 style=&quot;font-size: 13px;&quot;&gt;&lt;br style=&quot;font-size: 13px;&quot;&gt;&lt;/h3&gt;" style="edgeLabel;html=1;align=center;verticalAlign=middle;resizable=0;points=[];rotation=15;fontSize=13;" vertex="1" connectable="0" parent="9VAq0iB6tgvZGaMcJ6U8-43">
          <mxGeometry x="0.3246" y="-12" relative="1" as="geometry">
            <mxPoint x="-15" y="-2" as="offset" />
          </mxGeometry>
        </mxCell>
        <mxCell id="9VAq0iB6tgvZGaMcJ6U8-45" value="Take Test" style="edgeLabel;align=center;verticalAlign=middle;resizable=0;points=[];rotation=0;fontSize=13;" vertex="1" connectable="0" parent="1">
          <mxGeometry x="699.9959927382126" y="269.9961651102727" as="geometry">
            <mxPoint x="3.2395501180671404" y="-38.137977332739226" as="offset" />
          </mxGeometry>
        </mxCell>
        <mxCell id="9VAq0iB6tgvZGaMcJ6U8-46" value="" style="curved=1;endArrow=classic;html=1;rounded=0;entryX=0.201;entryY=0.91;entryDx=0;entryDy=0;entryPerimeter=0;exitX=0.75;exitY=1;exitDx=0;exitDy=0;edgeStyle=orthogonalEdgeStyle;fontSize=13;" edge="1" parent="1" source="9VAq0iB6tgvZGaMcJ6U8-34" target="9VAq0iB6tgvZGaMcJ6U8-35">
          <mxGeometry width="50" height="50" relative="1" as="geometry">
            <mxPoint x="530" y="460" as="sourcePoint" />
            <mxPoint x="878" y="501" as="targetPoint" />
            <Array as="points">
              <mxPoint x="519" y="570" />
              <mxPoint x="895" y="570" />
            </Array>
          </mxGeometry>
        </mxCell>
        <mxCell id="9VAq0iB6tgvZGaMcJ6U8-47" value="Access Test History" style="edgeLabel;align=center;verticalAlign=middle;resizable=0;points=[];rotation=0;fontSize=13;" vertex="1" connectable="0" parent="9VAq0iB6tgvZGaMcJ6U8-46">
          <mxGeometry x="0.3246" y="-12" relative="1" as="geometry">
            <mxPoint x="-65" y="8" as="offset" />
          </mxGeometry>
        </mxCell>
        <mxCell id="9VAq0iB6tgvZGaMcJ6U8-50" value="" style="curved=1;endArrow=classic;html=1;rounded=0;exitX=0.158;exitY=0.095;exitDx=0;exitDy=0;exitPerimeter=0;edgeStyle=orthogonalEdgeStyle;entryX=0.5;entryY=0;entryDx=0;entryDy=0;fontSize=13;" edge="1" parent="1" source="9VAq0iB6tgvZGaMcJ6U8-35" target="9VAq0iB6tgvZGaMcJ6U8-34">
          <mxGeometry width="50" height="50" relative="1" as="geometry">
            <mxPoint x="869" y="323" as="sourcePoint" />
            <mxPoint x="490" y="440" as="targetPoint" />
            <Array as="points">
              <mxPoint x="887" y="250" />
              <mxPoint x="496" y="250" />
            </Array>
          </mxGeometry>
        </mxCell>
        <mxCell id="9VAq0iB6tgvZGaMcJ6U8-51" value="&lt;h3 style=&quot;font-size: 13px;&quot;&gt;&lt;br style=&quot;font-size: 13px;&quot;&gt;&lt;/h3&gt;" style="edgeLabel;html=1;align=center;verticalAlign=middle;resizable=0;points=[];rotation=15;fontSize=13;" vertex="1" connectable="0" parent="9VAq0iB6tgvZGaMcJ6U8-50">
          <mxGeometry x="0.3246" y="-12" relative="1" as="geometry">
            <mxPoint x="-15" y="-2" as="offset" />
          </mxGeometry>
        </mxCell>
        <mxCell id="9VAq0iB6tgvZGaMcJ6U8-52" value="Get Band Score" style="edgeLabel;html=1;align=center;verticalAlign=middle;resizable=0;points=[];rotation=0;fontSize=13;" vertex="1" connectable="0" parent="9VAq0iB6tgvZGaMcJ6U8-50">
          <mxGeometry x="-0.0866" y="11" relative="1" as="geometry">
            <mxPoint x="14" y="10" as="offset" />
          </mxGeometry>
        </mxCell>
        <mxCell id="9VAq0iB6tgvZGaMcJ6U8-108" value="Manage Coaching Users ( Teachers/ Students)" style="edgeLabel;html=1;align=center;verticalAlign=middle;resizable=0;points=[];rotation=0;fontSize=13;" vertex="1" connectable="0" parent="9VAq0iB6tgvZGaMcJ6U8-50">
          <mxGeometry x="-0.0866" y="11" relative="1" as="geometry">
            <mxPoint x="524" y="79" as="offset" />
          </mxGeometry>
        </mxCell>
        <mxCell id="9VAq0iB6tgvZGaMcJ6U8-116" value="Manage Registeration" style="edgeLabel;html=1;align=center;verticalAlign=middle;resizable=0;points=[];rotation=0;fontSize=13;" vertex="1" connectable="0" parent="9VAq0iB6tgvZGaMcJ6U8-50">
          <mxGeometry x="-0.0866" y="11" relative="1" as="geometry">
            <mxPoint x="523" y="319" as="offset" />
          </mxGeometry>
        </mxCell>
        <mxCell id="9VAq0iB6tgvZGaMcJ6U8-118" value="Manage Subscription" style="edgeLabel;html=1;align=center;verticalAlign=middle;resizable=0;points=[];rotation=0;fontSize=13;" vertex="1" connectable="0" parent="9VAq0iB6tgvZGaMcJ6U8-50">
          <mxGeometry x="-0.0866" y="11" relative="1" as="geometry">
            <mxPoint x="523" y="279" as="offset" />
          </mxGeometry>
        </mxCell>
        <mxCell id="9VAq0iB6tgvZGaMcJ6U8-120" value="Manage Student / Teachers Feedback" style="edgeLabel;html=1;align=center;verticalAlign=middle;resizable=0;points=[];rotation=0;fontSize=13;" vertex="1" connectable="0" parent="9VAq0iB6tgvZGaMcJ6U8-50">
          <mxGeometry x="-0.0866" y="11" relative="1" as="geometry">
            <mxPoint x="523" y="119" as="offset" />
          </mxGeometry>
        </mxCell>
        <mxCell id="9VAq0iB6tgvZGaMcJ6U8-123" value="Create Test" style="edgeLabel;html=1;align=center;verticalAlign=middle;resizable=0;points=[];rotation=0;fontSize=13;" vertex="1" connectable="0" parent="9VAq0iB6tgvZGaMcJ6U8-50">
          <mxGeometry x="-0.0866" y="11" relative="1" as="geometry">
            <mxPoint x="225" y="429" as="offset" />
          </mxGeometry>
        </mxCell>
        <mxCell id="9VAq0iB6tgvZGaMcJ6U8-129" value="Grade Test" style="edgeLabel;html=1;align=center;verticalAlign=middle;resizable=0;points=[];rotation=0;fontSize=13;" vertex="1" connectable="0" parent="9VAq0iB6tgvZGaMcJ6U8-50">
          <mxGeometry x="-0.0866" y="11" relative="1" as="geometry">
            <mxPoint x="403" y="409" as="offset" />
          </mxGeometry>
        </mxCell>
        <mxCell id="9VAq0iB6tgvZGaMcJ6U8-137" value="Manage Test Crud" style="edgeLabel;html=1;align=center;verticalAlign=middle;resizable=0;points=[];rotation=75;fontSize=13;" vertex="1" connectable="0" parent="9VAq0iB6tgvZGaMcJ6U8-50">
          <mxGeometry x="-0.0866" y="11" relative="1" as="geometry">
            <mxPoint x="308" y="429" as="offset" />
          </mxGeometry>
        </mxCell>
        <mxCell id="9VAq0iB6tgvZGaMcJ6U8-144" value="Manage FeedBacks" style="edgeLabel;html=1;align=center;verticalAlign=middle;resizable=0;points=[];rotation=0;fontSize=13;" vertex="1" connectable="0" parent="9VAq0iB6tgvZGaMcJ6U8-50">
          <mxGeometry x="-0.0866" y="11" relative="1" as="geometry">
            <mxPoint x="524" y="199" as="offset" />
          </mxGeometry>
        </mxCell>
        <mxCell id="9VAq0iB6tgvZGaMcJ6U8-65" value="" style="endArrow=classic;html=1;rounded=0;entryX=0.294;entryY=0.975;entryDx=0;entryDy=0;entryPerimeter=0;exitX=0.5;exitY=1;exitDx=0;exitDy=0;edgeStyle=orthogonalEdgeStyle;curved=1;fontSize=13;" edge="1" parent="1" source="9VAq0iB6tgvZGaMcJ6U8-34" target="9VAq0iB6tgvZGaMcJ6U8-35">
          <mxGeometry width="50" height="50" relative="1" as="geometry">
            <mxPoint x="570" y="620" as="sourcePoint" />
            <mxPoint x="620" y="570" as="targetPoint" />
            <Array as="points">
              <mxPoint x="496" y="610" />
              <mxPoint x="911" y="610" />
            </Array>
          </mxGeometry>
        </mxCell>
        <mxCell id="9VAq0iB6tgvZGaMcJ6U8-66" value="Subscribe Package" style="edgeLabel;html=1;align=center;verticalAlign=middle;resizable=0;points=[];fontSize=13;" vertex="1" connectable="0" parent="9VAq0iB6tgvZGaMcJ6U8-65">
          <mxGeometry x="-0.6046" y="7" relative="1" as="geometry">
            <mxPoint x="185" y="27" as="offset" />
          </mxGeometry>
        </mxCell>
        <mxCell id="9VAq0iB6tgvZGaMcJ6U8-67" value="" style="endArrow=classic;html=1;rounded=0;exitX=0.401;exitY=0.985;exitDx=0;exitDy=0;entryX=0.25;entryY=1;entryDx=0;entryDy=0;exitPerimeter=0;edgeStyle=orthogonalEdgeStyle;elbow=vertical;curved=1;fontSize=13;" edge="1" parent="1">
          <mxGeometry width="50" height="50" relative="1" as="geometry">
            <mxPoint x="936.7739999999999" y="531.3900000000001" as="sourcePoint" />
            <mxPoint x="480" y="499" as="targetPoint" />
            <Array as="points">
              <mxPoint x="937" y="660" />
              <mxPoint x="480" y="660" />
            </Array>
          </mxGeometry>
        </mxCell>
        <mxCell id="9VAq0iB6tgvZGaMcJ6U8-68" value="Give FeedBacks" style="edgeLabel;html=1;align=center;verticalAlign=middle;resizable=0;points=[];fontSize=13;" vertex="1" connectable="0" parent="9VAq0iB6tgvZGaMcJ6U8-67">
          <mxGeometry x="0.4365" y="-7" relative="1" as="geometry">
            <mxPoint x="161" y="27" as="offset" />
          </mxGeometry>
        </mxCell>
        <mxCell id="9VAq0iB6tgvZGaMcJ6U8-77" value="" style="curved=1;endArrow=classic;html=1;rounded=0;edgeStyle=orthogonalEdgeStyle;fontSize=13;" edge="1" parent="1">
          <mxGeometry width="50" height="50" relative="1" as="geometry">
            <mxPoint x="540" y="450" as="sourcePoint" />
            <mxPoint x="860" y="430" as="targetPoint" />
            <Array as="points">
              <mxPoint x="540" y="390" />
              <mxPoint x="860" y="390" />
            </Array>
          </mxGeometry>
        </mxCell>
        <mxCell id="9VAq0iB6tgvZGaMcJ6U8-78" value="AI Support" style="edgeLabel;align=center;verticalAlign=middle;resizable=0;points=[];rotation=0;fontSize=13;" vertex="1" connectable="0" parent="9VAq0iB6tgvZGaMcJ6U8-77">
          <mxGeometry x="0.3246" y="-12" relative="1" as="geometry">
            <mxPoint x="-57" y="6" as="offset" />
          </mxGeometry>
        </mxCell>
        <mxCell id="9VAq0iB6tgvZGaMcJ6U8-80" value="Get Suggestions" style="edgeLabel;align=center;verticalAlign=middle;resizable=0;points=[];rotation=0;fontSize=13;" vertex="1" connectable="0" parent="9VAq0iB6tgvZGaMcJ6U8-77">
          <mxGeometry x="0.3246" y="-12" relative="1" as="geometry">
            <mxPoint x="-47" y="128" as="offset" />
          </mxGeometry>
        </mxCell>
        <mxCell id="9VAq0iB6tgvZGaMcJ6U8-79" value="" style="endArrow=classic;html=1;rounded=0;entryX=1;entryY=1;entryDx=0;entryDy=0;exitX=0;exitY=1;exitDx=0;exitDy=0;curved=1;fontSize=13;" edge="1" parent="1" source="9VAq0iB6tgvZGaMcJ6U8-35" target="9VAq0iB6tgvZGaMcJ6U8-34">
          <mxGeometry width="50" height="50" relative="1" as="geometry">
            <mxPoint x="670" y="440" as="sourcePoint" />
            <mxPoint x="720" y="390" as="targetPoint" />
            <Array as="points">
              <mxPoint x="850" y="530" />
              <mxPoint x="710" y="550" />
              <mxPoint x="570" y="530" />
            </Array>
          </mxGeometry>
        </mxCell>
        <mxCell id="9VAq0iB6tgvZGaMcJ6U8-143" style="rounded=0;orthogonalLoop=1;jettySize=auto;html=1;exitX=0;exitY=0.25;exitDx=0;exitDy=0;entryX=1;entryY=0.5;entryDx=0;entryDy=0;" edge="1" parent="1" source="9VAq0iB6tgvZGaMcJ6U8-105" target="9VAq0iB6tgvZGaMcJ6U8-35">
          <mxGeometry relative="1" as="geometry" />
        </mxCell>
        <mxCell id="9VAq0iB6tgvZGaMcJ6U8-105" value="Coach Admin" style="whiteSpace=wrap;strokeWidth=2;fillColor=#b0e3e6;strokeColor=#0e8088;rounded=1;fontSize=14;" vertex="1" parent="1">
          <mxGeometry x="1350" y="430" width="92" height="49" as="geometry" />
        </mxCell>
        <mxCell id="9VAq0iB6tgvZGaMcJ6U8-106" value="" style="endArrow=classic;html=1;rounded=0;edgeStyle=orthogonalEdgeStyle;curved=1;exitX=0.5;exitY=0;exitDx=0;exitDy=0;entryX=0.808;entryY=0.078;entryDx=0;entryDy=0;entryPerimeter=0;fontSize=13;" edge="1" parent="1" source="9VAq0iB6tgvZGaMcJ6U8-105" target="9VAq0iB6tgvZGaMcJ6U8-35">
          <mxGeometry width="50" height="50" relative="1" as="geometry">
            <mxPoint x="1020" y="370" as="sourcePoint" />
            <mxPoint x="1070" y="320" as="targetPoint" />
            <Array as="points">
              <mxPoint x="1396" y="320" />
              <mxPoint x="1001" y="320" />
            </Array>
          </mxGeometry>
        </mxCell>
        <mxCell id="9VAq0iB6tgvZGaMcJ6U8-115" value="" style="endArrow=classic;html=1;rounded=0;exitX=0.5;exitY=1;exitDx=0;exitDy=0;entryX=1;entryY=1;entryDx=0;entryDy=0;curved=1;edgeStyle=orthogonalEdgeStyle;fontSize=13;" edge="1" parent="1" source="9VAq0iB6tgvZGaMcJ6U8-105" target="9VAq0iB6tgvZGaMcJ6U8-35">
          <mxGeometry width="50" height="50" relative="1" as="geometry">
            <mxPoint x="1020" y="510" as="sourcePoint" />
            <mxPoint x="1070" y="460" as="targetPoint" />
            <Array as="points">
              <mxPoint x="1396" y="560" />
              <mxPoint x="1009" y="560" />
            </Array>
          </mxGeometry>
        </mxCell>
        <mxCell id="9VAq0iB6tgvZGaMcJ6U8-117" value="" style="endArrow=classic;html=1;rounded=0;exitX=0.25;exitY=1;exitDx=0;exitDy=0;entryX=0.959;entryY=0.701;entryDx=0;entryDy=0;entryPerimeter=0;curved=1;edgeStyle=orthogonalEdgeStyle;fontSize=13;" edge="1" parent="1" source="9VAq0iB6tgvZGaMcJ6U8-105" target="9VAq0iB6tgvZGaMcJ6U8-35">
          <mxGeometry width="50" height="50" relative="1" as="geometry">
            <mxPoint x="1020" y="510" as="sourcePoint" />
            <mxPoint x="1070" y="460" as="targetPoint" />
            <Array as="points">
              <mxPoint x="1373" y="530" />
              <mxPoint x="1027" y="530" />
            </Array>
          </mxGeometry>
        </mxCell>
        <mxCell id="9VAq0iB6tgvZGaMcJ6U8-119" value="" style="endArrow=classic;html=1;rounded=0;exitX=0.25;exitY=0;exitDx=0;exitDy=0;entryX=0.936;entryY=0.238;entryDx=0;entryDy=0;entryPerimeter=0;edgeStyle=orthogonalEdgeStyle;curved=1;fontSize=13;" edge="1" parent="1" source="9VAq0iB6tgvZGaMcJ6U8-105" target="9VAq0iB6tgvZGaMcJ6U8-35">
          <mxGeometry width="50" height="50" relative="1" as="geometry">
            <mxPoint x="1020" y="510" as="sourcePoint" />
            <mxPoint x="1070" y="460" as="targetPoint" />
            <Array as="points">
              <mxPoint x="1373" y="360" />
              <mxPoint x="1023" y="360" />
            </Array>
          </mxGeometry>
        </mxCell>
        <mxCell id="9VAq0iB6tgvZGaMcJ6U8-121" value="Teacher" style="whiteSpace=wrap;strokeWidth=2;fillColor=#b0e3e6;strokeColor=#0e8088;rounded=1;fontSize=13;" vertex="1" parent="1">
          <mxGeometry x="1010" y="780" width="92" height="49" as="geometry" />
        </mxCell>
        <mxCell id="9VAq0iB6tgvZGaMcJ6U8-122" value="" style="endArrow=classic;html=1;rounded=0;exitX=0.25;exitY=0;exitDx=0;exitDy=0;curved=1;edgeStyle=orthogonalEdgeStyle;fontSize=13;" edge="1" parent="1" source="9VAq0iB6tgvZGaMcJ6U8-121" target="9VAq0iB6tgvZGaMcJ6U8-35">
          <mxGeometry width="50" height="50" relative="1" as="geometry">
            <mxPoint x="1020" y="650" as="sourcePoint" />
            <mxPoint x="1070" y="600" as="targetPoint" />
            <Array as="points">
              <mxPoint x="940" y="780" />
            </Array>
          </mxGeometry>
        </mxCell>
        <mxCell id="9VAq0iB6tgvZGaMcJ6U8-128" value="" style="endArrow=classic;html=1;rounded=0;exitX=0.38;exitY=-0.073;exitDx=0;exitDy=0;entryX=0.76;entryY=0.941;entryDx=0;entryDy=0;entryPerimeter=0;curved=1;exitPerimeter=0;" edge="1" parent="1" source="9VAq0iB6tgvZGaMcJ6U8-121" target="9VAq0iB6tgvZGaMcJ6U8-35">
          <mxGeometry width="50" height="50" relative="1" as="geometry">
            <mxPoint x="780" y="600" as="sourcePoint" />
            <mxPoint x="830" y="550" as="targetPoint" />
            <Array as="points">
              <mxPoint x="1080" y="640" />
            </Array>
          </mxGeometry>
        </mxCell>
        <mxCell id="9VAq0iB6tgvZGaMcJ6U8-130" style="rounded=0;orthogonalLoop=1;jettySize=auto;html=1;entryX=0.624;entryY=0.98;entryDx=0;entryDy=0;entryPerimeter=0;" edge="1" parent="1">
          <mxGeometry relative="1" as="geometry">
            <mxPoint x="1030" y="780" as="sourcePoint" />
            <mxPoint x="968.5759999999996" y="530.52" as="targetPoint" />
          </mxGeometry>
        </mxCell>
        <mxCell id="9VAq0iB6tgvZGaMcJ6U8-133" style="rounded=0;orthogonalLoop=1;jettySize=auto;html=1;exitX=0.25;exitY=1;exitDx=0;exitDy=0;curved=1;entryX=0.68;entryY=0.015;entryDx=0;entryDy=0;entryPerimeter=0;" edge="1" parent="1" source="9VAq0iB6tgvZGaMcJ6U8-131" target="9VAq0iB6tgvZGaMcJ6U8-35">
          <mxGeometry relative="1" as="geometry">
            <Array as="points">
              <mxPoint x="1073" y="270" />
            </Array>
          </mxGeometry>
        </mxCell>
        <mxCell id="9VAq0iB6tgvZGaMcJ6U8-131" value="Admin" style="whiteSpace=wrap;strokeWidth=2;fillColor=#b0e3e6;strokeColor=#0e8088;rounded=1;fontSize=13;" vertex="1" parent="1">
          <mxGeometry x="1050" y="80" width="92" height="49" as="geometry" />
        </mxCell>
        <mxCell id="9VAq0iB6tgvZGaMcJ6U8-132" value="" style="endArrow=classic;html=1;rounded=0;exitX=0;exitY=0.5;exitDx=0;exitDy=0;entryX=0.56;entryY=-0.009;entryDx=0;entryDy=0;curved=1;entryPerimeter=0;" edge="1" parent="1" source="9VAq0iB6tgvZGaMcJ6U8-131" target="9VAq0iB6tgvZGaMcJ6U8-35">
          <mxGeometry width="50" height="50" relative="1" as="geometry">
            <mxPoint x="780" y="440" as="sourcePoint" />
            <mxPoint x="830" y="390" as="targetPoint" />
            <Array as="points">
              <mxPoint x="940" y="220" />
            </Array>
          </mxGeometry>
        </mxCell>
        <mxCell id="9VAq0iB6tgvZGaMcJ6U8-134" style="rounded=0;orthogonalLoop=1;jettySize=auto;html=1;exitX=0;exitY=0;exitDx=0;exitDy=0;entryX=0.46;entryY=0;entryDx=0;entryDy=0;entryPerimeter=0;curved=1;" edge="1" parent="1" source="9VAq0iB6tgvZGaMcJ6U8-131" target="9VAq0iB6tgvZGaMcJ6U8-35">
          <mxGeometry relative="1" as="geometry">
            <Array as="points">
              <mxPoint x="900" y="210" />
            </Array>
          </mxGeometry>
        </mxCell>
        <mxCell id="9VAq0iB6tgvZGaMcJ6U8-135" style="rounded=0;orthogonalLoop=1;jettySize=auto;html=1;exitX=0.5;exitY=1;exitDx=0;exitDy=0;entryX=0.744;entryY=0.063;entryDx=0;entryDy=0;entryPerimeter=0;curved=1;" edge="1" parent="1" source="9VAq0iB6tgvZGaMcJ6U8-131" target="9VAq0iB6tgvZGaMcJ6U8-35">
          <mxGeometry relative="1" as="geometry">
            <Array as="points">
              <mxPoint x="1130" y="270" />
            </Array>
          </mxGeometry>
        </mxCell>
        <mxCell id="9VAq0iB6tgvZGaMcJ6U8-136" value="Manage Coach Admins" style="text;whiteSpace=wrap;" vertex="1" parent="1">
          <mxGeometry x="840" y="151" width="140" height="40" as="geometry" />
        </mxCell>
        <mxCell id="9VAq0iB6tgvZGaMcJ6U8-138" value="Manage Users" style="text;whiteSpace=wrap;" vertex="1" parent="1">
          <mxGeometry x="1100" y="192" width="140" height="40" as="geometry" />
        </mxCell>
        <mxCell id="9VAq0iB6tgvZGaMcJ6U8-139" value="View Test Records" style="text;whiteSpace=wrap;rotation=-75;" vertex="1" parent="1">
          <mxGeometry x="940" y="200" width="140" height="40" as="geometry" />
        </mxCell>
        <mxCell id="9VAq0iB6tgvZGaMcJ6U8-140" value="View Test Records" style="text;whiteSpace=wrap;rotation=105;" vertex="1" parent="1">
          <mxGeometry x="990" y="240" width="140" height="40" as="geometry" />
        </mxCell>
        <mxCell id="9VAq0iB6tgvZGaMcJ6U8-141" style="rounded=0;orthogonalLoop=1;jettySize=auto;html=1;exitX=0;exitY=1;exitDx=0;exitDy=0;" edge="1" parent="1" source="9VAq0iB6tgvZGaMcJ6U8-131">
          <mxGeometry relative="1" as="geometry">
            <mxPoint x="970" y="360" as="targetPoint" />
          </mxGeometry>
        </mxCell>
        <mxCell id="9VAq0iB6tgvZGaMcJ6U8-142" value="Hanlde DataBase" style="text;whiteSpace=wrap;rotation=110;" vertex="1" parent="1">
          <mxGeometry x="947" y="240" width="140" height="40" as="geometry" />
        </mxCell>
      </root>
    </mxGraphModel>
  </diagram>
</mxfile>
